<?xml version="1.0" encoding="utf-8"?>
<!-- Generator: Adobe Illustrator 19.0.0, SVG Export Plug-In . SVG Version: 6.00 Build 0)  -->
<svg version="1.1" id="Layer_2" xmlns="http://www.w3.org/2000/svg" xmlns:xlink="http://www.w3.org/1999/xlink" x="0px" y="0px"
	 viewBox="0 0 7411.9 2008.7" enable-background="new 0 0 7411.9 2008.7" xml:space="preserve">
<g>
	<g>
		<path fill="#FA385B" d="M1016.5,570.4c60.7,0,115.4,21.2,156.8,56c47.3,39.8,79.1,102.9,104.2,169.5
			c22.7,60.5,47.4,118.3,81.9,163.5c47.6,62.4,114.9,102.1,209.1,102.1c24.7,0,44.9-3.5,58.8-6.9L1304,1428.3
			c-146.8-139.4-349.3-348.7-430.8-446.4c-48-57.6-81.5-91.2-81.5-171.5C791.7,720.4,854.6,570.4,1016.5,570.4 M1838.4,795
			c0-176.1-141.7-278.9-270.9-278.9c-115.8,0-198.4,66.1-242.2,144c-7.2,12.9-2.4,29.2,10.6,36.2h0c13,7,29.1,1.9,35.9-11.1
			c33.3-63.5,104.5-116.6,197.1-116.6c102.2,0,216.9,83.8,216.9,219.5s-112.7,220.9-217.5,220.9c-70.9,0-125.6-26.6-167.4-81.5
			c-31.3-41.1-54.3-96.5-74.5-150.2c-15.2-40.5-30.8-74.1-47.6-102.8c-10.1-17.2-20.8-33.1-32-47c-12.5-15.6-25.9-29.5-39.9-41.3
			c-25.7-21.6-54.9-38.5-86.9-50.2c-32.9-12-67.8-18.1-103.6-18.1l0,0c-46.9,0-90,10.5-128.3,31.1c-33.7,18.2-63,43.9-87,76.4
			c-10.5,14.2-19.9,29.7-28,46.1c-7.5,15.2-13.9,31.2-19.1,47.5c-9.7,30.7-14.8,62.2-14.8,91.2c0,43.2,8.1,79.1,25.6,112.8
			c15.2,29.4,35.1,53,58.1,80.4c3.2,3.8,6.6,7.8,10,11.9c39.9,47.8,108.6,122.5,193.4,210.4c82.3,85.2,170.4,172.9,241.5,240.5
			l20.2,19.1c10.7,10.2,27.7,9.3,37.4-1.8l18.2-21l323.2-373.7l107.2-124C1796.6,938.8,1838.4,874.8,1838.4,795z"/>
		<g>
			<g>
				<circle fill="#EAEFF3" cx="822.9" cy="848.4" r="12.4"/>
				<circle fill="#EAEFF3" cx="855" cy="848.4" r="12.4"/>
				<circle fill="#EAEFF3" cx="887.1" cy="848.4" r="12.4"/>
				<circle fill="#FA385B" cx="919.2" cy="848.4" r="12.4"/>
				<circle fill="#FA385B" cx="951.3" cy="848.4" r="12.4"/>
				<circle fill="#EAEFF3" cx="983.4" cy="848.4" r="12.4"/>
				<circle fill="#FA385B" cx="1015.5" cy="848.4" r="12.4"/>
			</g>
			<g>
				<circle fill="#EAEFF3" cx="1071.5" cy="848.4" r="12.4"/>
				<circle fill="#EAEFF3" cx="1103.6" cy="848.4" r="12.4"/>
				<circle fill="#EAEFF3" cx="1135.7" cy="848.4" r="12.4"/>
				<circle fill="#FA385B" cx="1167.8" cy="848.4" r="12.4"/>
				<circle fill="#EAEFF3" cx="1199.9" cy="848.4" r="12.4"/>
				<circle fill="#EAEFF3" cx="1232" cy="848.4" r="12.4"/>
				<circle fill="#FA385B" cx="1264.1" cy="848.4" r="12.4"/>
			</g>
			<g>
				<circle fill="#EAEFF3" cx="844.1" cy="892.9" r="12.4"/>
				<circle fill="#EAEFF3" cx="876.2" cy="892.9" r="12.4"/>
				<circle fill="#EAEFF3" cx="908.3" cy="892.9" r="12.4"/>
				<circle fill="#EAEFF3" cx="940.4" cy="892.9" r="12.4"/>
				<circle fill="#FA385B" cx="972.5" cy="892.9" r="12.4"/>
				<circle fill="#FA385B" cx="1004.6" cy="892.9" r="12.4"/>
				<circle fill="#FA385B" cx="1036.7" cy="892.9" r="12.4"/>
			</g>
			<g>
				<circle fill="#EAEFF3" cx="1092.7" cy="892.9" r="12.4"/>
				<circle fill="#EAEFF3" cx="1124.8" cy="892.9" r="12.4"/>
				<circle fill="#EAEFF3" cx="1156.9" cy="892.9" r="12.4"/>
				<circle fill="#FA385B" cx="1189" cy="892.9" r="12.4"/>
				<circle fill="#EAEFF3" cx="1221.1" cy="892.9" r="12.4"/>
				<circle fill="#EAEFF3" cx="1253.2" cy="892.9" r="12.4"/>
				<circle fill="#EAEFF3" cx="1285.3" cy="892.9" r="12.4"/>
			</g>
			<g>
				<circle fill="#EAEFF3" cx="1092.1" cy="1147.1" r="11.6"/>
				<circle fill="#EAEFF3" cx="1122.2" cy="1147.1" r="11.6"/>
				<circle fill="#EAEFF3" cx="1152.3" cy="1147.1" r="11.6"/>
				<circle fill="#FA385B" cx="1182.3" cy="1147.1" r="11.6"/>
				<circle fill="#EAEFF3" cx="1212.4" cy="1147.1" r="11.6"/>
				<circle fill="#EAEFF3" cx="1242.4" cy="1147.1" r="11.6"/>
				<circle fill="#FA385B" cx="1272.5" cy="1147.1" r="11.6"/>
			</g>
			<g>
				<circle fill="#EAEFF3" cx="1325.6" cy="1147.1" r="11.6"/>
				<circle fill="#EAEFF3" cx="1355.6" cy="1147.1" r="11.6"/>
				<circle fill="#EAEFF3" cx="1385.7" cy="1147.1" r="11.6"/>
				<circle fill="#FA385B" cx="1415.7" cy="1147.1" r="11.6"/>
				<circle fill="#FA385B" cx="1445.8" cy="1147.1" r="11.6"/>
				<circle fill="#FA385B" cx="1475.9" cy="1147.1" r="11.6"/>
				<circle fill="#EAEFF3" cx="1505.9" cy="1147.1" r="11.6"/>
			</g>
			<g>
				<circle fill="#EAEFF3" cx="1041.2" cy="1103.7" r="14"/>
				<circle fill="#EAEFF3" cx="1077.1" cy="1103.7" r="14"/>
				<circle fill="#FA385B" cx="1113.1" cy="1103.7" r="14"/>
				<circle fill="#EAEFF3" cx="1149" cy="1103.7" r="14"/>
				<circle fill="#FA385B" cx="1185" cy="1103.7" r="14"/>
				<circle fill="#EAEFF3" cx="1220.9" cy="1103.7" r="14"/>
				<circle fill="#EAEFF3" cx="1256.8" cy="1103.7" r="14"/>
			</g>
			<g>
				<circle fill="#EAEFF3" cx="1320.5" cy="1103.7" r="14"/>
				<circle fill="#EAEFF3" cx="1356.5" cy="1103.7" r="14"/>
				<circle fill="#EAEFF3" cx="1392.4" cy="1103.7" r="14"/>
				<circle fill="#FA385B" cx="1428.4" cy="1103.7" r="14"/>
				<circle fill="#EAEFF3" cx="1464.3" cy="1103.7" r="14"/>
				<circle fill="#EAEFF3" cx="1500.2" cy="1103.7" r="14"/>
				<circle fill="#EAEFF3" cx="1536.2" cy="1103.7" r="14"/>
			</g>
			<g>
				<circle fill="#EAEFF3" cx="1153.9" cy="1195.1" r="18.7"/>
				<circle fill="#EAEFF3" cx="1202.6" cy="1195.1" r="18.7"/>
				<circle fill="#EAEFF3" cx="1251.2" cy="1195.1" r="18.7"/>
				<circle fill="#EAEFF3" cx="1299.9" cy="1195.1" r="18.7"/>
				<circle fill="#FA385B" cx="1348.5" cy="1195.1" r="18.7"/>
				<circle fill="#FA385B" cx="1397.2" cy="1195.1" r="18.7"/>
				<circle fill="#FA385B" cx="1445.8" cy="1195.1" r="18.7"/>
			</g>
			<g>
				<circle fill="#EAEFF3" cx="1208" cy="1244.9" r="13.2"/>
				<circle fill="#EAEFF3" cx="1242" cy="1244.9" r="13.2"/>
				<circle fill="#FA385B" cx="1276" cy="1244.9" r="13.2"/>
				<circle fill="#EAEFF3" cx="1310" cy="1244.9" r="13.2"/>
				<circle fill="#EAEFF3" cx="1344" cy="1244.9" r="13.2"/>
				<circle fill="#FA385B" cx="1378" cy="1244.9" r="13.2"/>
				<circle fill="#FA385B" cx="1412" cy="1244.9" r="13.2"/>
			</g>
			<g>
				<circle fill="#EAEFF3" cx="921.1" cy="948.1" r="22.8"/>
				<circle fill="#EAEFF3" cx="980.1" cy="948.1" r="22.8"/>
				<circle fill="#FA385B" cx="1039.1" cy="948.1" r="22.8"/>
				<circle fill="#EAEFF3" cx="1098" cy="948.1" r="22.8"/>
				<circle fill="#FA385B" cx="1157" cy="948.1" r="22.8"/>
				<circle fill="#EAEFF3" cx="1216" cy="948.1" r="22.8"/>
				<circle fill="#EAEFF3" cx="1275" cy="948.1" r="22.8"/>
			</g>
			<g>
				<circle fill="#EAEFF3" cx="962.6" cy="1013.9" r="24.2"/>
				<circle fill="#EAEFF3" cx="1025.6" cy="1013.9" r="24.2"/>
				<circle fill="#FA385B" cx="1088.6" cy="1013.9" r="24.2"/>
				<circle fill="#FA385B" cx="1151.6" cy="1013.9" r="24.2"/>
				<circle fill="#EAEFF3" cx="1214.5" cy="1013.9" r="24.2"/>
				<circle fill="#EAEFF3" cx="1277.5" cy="1013.9" r="24.2"/>
				<circle fill="#FA385B" cx="1340.5" cy="1013.9" r="24.2"/>
			</g>
			<g>
				<circle fill="#EAEFF3" cx="939.3" cy="625.1" r="10.1"/>
				<circle fill="#EAEFF3" cx="965.2" cy="625.1" r="10.1"/>
				<circle fill="#EAEFF3" cx="991.2" cy="625.1" r="10.1"/>
				<circle fill="#EAEFF3" cx="1017.1" cy="625.1" r="10.1"/>
				<circle fill="#FA385B" cx="1043" cy="625.1" r="10.1"/>
				<circle fill="#EAEFF3" cx="1069" cy="625.1" r="10.1"/>
				<circle fill="#EAEFF3" cx="1094.9" cy="625.1" r="10.1"/>
			</g>
			<g>
				<circle fill="#EAEFF3" cx="904" cy="662.3" r="14.5"/>
				<circle fill="#EAEFF3" cx="941.8" cy="662.3" r="14.5"/>
				<circle fill="#EAEFF3" cx="979.6" cy="662.3" r="14.5"/>
				<circle fill="#EAEFF3" cx="1017.4" cy="662.3" r="14.5"/>
				<circle fill="#EAEFF3" cx="1055.2" cy="662.3" r="14.5"/>
				<circle fill="#EAEFF3" cx="1093" cy="662.3" r="14.5"/>
				<circle fill="#FA385B" cx="1130.7" cy="662.3" r="14.5"/>
			</g>
			<g>
				<circle fill="#EAEFF3" cx="876.6" cy="708.3" r="18"/>
				<circle fill="#EAEFF3" cx="923.6" cy="708.3" r="18"/>
				<circle fill="#FA385B" cx="970.6" cy="708.3" r="18"/>
				<circle fill="#EAEFF3" cx="1017.7" cy="708.3" r="18"/>
				<circle fill="#EAEFF3" cx="1064.7" cy="708.3" r="18"/>
				<circle fill="#FA385B" cx="1111.7" cy="708.3" r="18"/>
				<circle fill="#EAEFF3" cx="1158.7" cy="708.3" r="18"/>
			</g>
			<g>
				<circle fill="#EAEFF3" cx="866.6" cy="760.6" r="21"/>
				<circle fill="#EAEFF3" cx="921.5" cy="760.6" r="21"/>
				<circle fill="#EAEFF3" cx="976.3" cy="760.6" r="21"/>
				<circle fill="#EAEFF3" cx="1031.1" cy="760.6" r="21"/>
				<circle fill="#FA385B" cx="1086" cy="760.6" r="21"/>
				<circle fill="#EAEFF3" cx="1140.8" cy="760.6" r="21"/>
				<circle fill="#FA385B" cx="1195.7" cy="760.6" r="21"/>
			</g>
		</g>
	</g>
	<g>
		<path fill="#959EA7" d="M2034.4,1156c-28.6-16.1-50.9-38.5-66.8-67.2c-15.9-28.6-23.9-61.1-23.9-97.5c0-36.8,7.9-69.6,23.9-98.2
			c15.9-28.6,38.2-51,66.8-67.2c28.6-16.1,61.1-24.2,97.5-24.2c35.9,0,68.1,8.1,96.5,24.2c28.4,16.1,50.7,38.5,66.8,67.2
			c16.1,28.6,24.2,61.4,24.2,98.2c0,36.4-8,68.9-23.9,97.5c-15.9,28.6-38.1,51-66.5,67.2c-28.4,16.1-60.8,24.2-97.2,24.2
			C2095.5,1180.2,2063,1172.1,2034.4,1156z M2194.3,1102.4c18.4-10.9,32.7-26,43-45.4c10.2-19.3,15.3-41.3,15.3-65.8
			c0-24.6-5.1-46.6-15.3-66.2c-10.2-19.5-24.6-34.8-43-45.7c-18.4-10.9-39.2-16.4-62.4-16.4s-44,5.5-62.4,16.4
			c-18.4,10.9-32.9,26.2-43.3,45.7c-10.5,19.6-15.7,41.6-15.7,66.2c0,24.6,5.2,46.5,15.7,65.8c10.5,19.3,24.9,34.4,43.3,45.4
			c18.4,10.9,39.2,16.4,62.4,16.4S2175.9,1113.4,2194.3,1102.4z"/>
		<path fill="#959EA7" d="M2706.5,826.6c28.9,16.6,51.5,39.3,67.9,68.2c16.4,28.9,24.6,61,24.6,96.5c0,35.5-7.6,67.6-22.8,96.5
			c-15.2,28.9-36.1,51.5-62.7,67.9c-26.6,16.4-56.3,24.6-89,24.6c-26.4,0-50.9-5.5-73.7-16.4c-22.7-10.9-42.1-26.1-58-45.7v184.1
			c0,10.5-3.2,18.9-9.5,25.2c-6.4,6.4-14.8,9.5-25.2,9.5c-10,0-18.3-3.2-24.9-9.5c-6.6-6.4-9.9-14.8-9.9-25.2v-311
			c0-35.5,8.3-67.6,24.9-96.5c16.6-28.9,39.1-51.6,67.5-68.2c28.4-16.6,60.1-24.9,95.1-24.9C2645.6,801.7,2677.6,810,2706.5,826.6z
			 M2672.4,1102.1c18.4-11.1,33-26.4,43.6-45.7c10.7-19.3,16-41,16-65.1c0-24.1-5.3-45.9-16-65.5c-10.7-19.5-25.2-34.9-43.6-46
			c-18.4-11.1-39-16.7-61.7-16.7c-22.7,0-43.3,5.6-61.7,16.7c-18.4,11.1-32.9,26.5-43.3,46c-10.5,19.6-15.7,41.4-15.7,65.5
			c0,24.1,5.2,45.8,15.7,65.1c10.5,19.3,24.9,34.6,43.3,45.7c18.4,11.1,39,16.7,61.7,16.7
			C2633.4,1118.8,2653.9,1113.2,2672.4,1102.1z"/>
		<path fill="#959EA7" d="M3228.5,1006.6c-5.9,5.7-13.4,8.5-22.5,8.5h-259.2c5,31.8,19.4,57.5,43.3,77.1
			c23.9,19.6,53.1,29.3,87.6,29.3c13.6,0,27.8-2.5,42.6-7.5c14.8-5,26.9-11.1,36.5-18.4c6.4-5,13.9-7.5,22.5-7.5
			c8.6,0,15.5,2.3,20.5,6.8c8.2,6.8,12.3,14.6,12.3,23.2c0,8.2-3.6,15-10.9,20.5c-15.5,12.3-34.7,22.3-57.6,30
			c-23,7.7-44.9,11.6-65.8,11.6c-37.3,0-70.7-8.1-100.3-24.2c-29.6-16.1-52.6-38.5-69.2-67.2c-16.6-28.6-24.9-61.1-24.9-97.5
			c0-36.4,7.8-69,23.5-97.9c15.7-28.9,37.5-51.4,65.5-67.5c28-16.1,59.7-24.2,95.1-24.2c35,0,65.2,7.7,90.7,23.2
			c25.5,15.5,45,37.1,58.7,64.8c13.6,27.7,20.5,59.6,20.5,95.5C3237.4,993.8,3234.4,1000.9,3228.5,1006.6z M2986.8,887.6
			c-20.7,18.2-33.8,42.5-39.2,73h227.1c-4.1-30.5-15.5-54.8-34.1-73c-18.6-18.2-43-27.3-73-27.3
			C3034.4,860.3,3007.4,869.4,2986.8,887.6z"/>
		<path fill="#959EA7" d="M3596.1,821.5c25,13.6,44.6,33.5,58.7,59.7c14.1,26.2,21.1,57.6,21.1,94.5v167.8c0,10-3.3,18.3-9.9,24.9
			c-6.6,6.6-14.9,9.9-24.9,9.9c-10,0-18.3-3.3-24.9-9.9c-6.6-6.6-9.9-14.9-9.9-24.9V975.6c0-36.8-9.9-64.7-29.7-83.5
			c-19.8-18.9-46-28.3-78.8-28.3c-19.1,0-36.5,3.9-52.2,11.6c-15.7,7.7-28,18.2-36.8,31.4c-8.9,13.2-13.3,28-13.3,44.3v192.3
			c0,10-3.2,18.3-9.5,24.9c-6.4,6.6-14.8,9.9-25.2,9.9c-10,0-18.3-3.3-24.9-9.9c-6.6-6.6-9.9-14.9-9.9-24.9V839.2
			c0-10.5,3.3-18.9,9.9-25.2c6.6-6.4,14.9-9.5,24.9-9.5c10.5,0,18.9,3.2,25.2,9.5c6.4,6.4,9.5,14.8,9.5,25.2v7.5
			c14.5-14.5,31.8-25.8,51.8-33.8c20-7.9,41.4-11.9,64.1-11.9C3542.9,801,3571.1,807.8,3596.1,821.5z"/>
	</g>
	<g>
		<path fill="#FA385B" d="M4073.6,826.6c28.9,16.6,51.5,39.3,67.9,68.2c16.4,28.9,24.6,61,24.6,96.5c0,35.5-7.6,67.6-22.8,96.5
			c-15.2,28.9-36.1,51.5-62.7,67.9c-26.6,16.4-56.3,24.6-89,24.6c-26.4,0-50.9-5.5-73.7-16.4c-22.7-10.9-42.1-26.1-58-45.7v184.1
			c0,10.5-3.2,18.9-9.5,25.2c-6.4,6.4-14.8,9.5-25.2,9.5c-10,0-18.3-3.2-24.9-9.5c-6.6-6.4-9.9-14.8-9.9-25.2v-311
			c0-35.5,8.3-67.6,24.9-96.5c16.6-28.9,39.1-51.6,67.5-68.2c28.4-16.6,60.1-24.9,95.1-24.9C4012.8,801.7,4044.7,810,4073.6,826.6z
			 M4039.5,1102.1c18.4-11.1,33-26.4,43.6-45.7c10.7-19.3,16-41,16-65.1c0-24.1-5.3-45.9-16-65.5c-10.7-19.5-25.2-34.9-43.6-46
			c-18.4-11.1-39-16.7-61.7-16.7c-22.7,0-43.3,5.6-61.7,16.7c-18.4,11.1-32.9,26.5-43.3,46c-10.5,19.6-15.7,41.4-15.7,65.5
			c0,24.1,5.2,45.8,15.7,65.1c10.5,19.3,24.9,34.6,43.3,45.7c18.4,11.1,39,16.7,61.7,16.7
			C4000.5,1118.8,4021.1,1113.2,4039.5,1102.1z"/>
		<path fill="#FA385B" d="M4509.2,811.2c13.6,7.3,20.5,16.4,20.5,27.3c0,3.2-0.2,5.5-0.7,6.8c-4.1,14.6-13.2,21.8-27.3,21.8
			c-2.3,0-5.7-0.4-10.2-1.4c-18.2-3.2-33-4.8-44.3-4.8c-32.7,0-59.1,7.5-79.1,22.5c-20,15-30,35.2-30,60.7v199.1
			c0,10.9-2.8,19.3-8.5,25.2c-5.7,5.9-14.2,8.9-25.6,8.9c-10.9,0-19.3-2.8-25.2-8.5c-5.9-5.7-8.9-14.2-8.9-25.6V838.5
			c0-10.9,3-19.3,8.9-25.2c5.9-5.9,14.3-8.9,25.2-8.9c22.7,0,34.1,11.4,34.1,34.1v13c13.6-15.9,30.5-28.4,50.5-37.5
			c20-9.1,41.4-13.6,64.1-13.6C4476.7,800.3,4495.6,804,4509.2,811.2z"/>
		<path fill="#FA385B" d="M4672.9,1156c-28.6-16.1-50.9-38.5-66.8-67.2c-15.9-28.6-23.9-61.1-23.9-97.5c0-36.8,7.9-69.6,23.9-98.2
			c15.9-28.6,38.2-51,66.8-67.2c28.6-16.1,61.1-24.2,97.5-24.2c35.9,0,68.1,8.1,96.5,24.2c28.4,16.1,50.7,38.5,66.8,67.2
			c16.1,28.6,24.2,61.4,24.2,98.2c0,36.4-8,68.9-23.9,97.5c-15.9,28.6-38.1,51-66.5,67.2c-28.4,16.1-60.8,24.2-97.2,24.2
			C4734.1,1180.2,4701.6,1172.1,4672.9,1156z M4832.9,1102.4c18.4-10.9,32.7-26,43-45.4c10.2-19.3,15.3-41.3,15.3-65.8
			c0-24.6-5.1-46.6-15.3-66.2c-10.2-19.5-24.6-34.8-43-45.7c-18.4-10.9-39.2-16.4-62.4-16.4c-23.2,0-44,5.5-62.4,16.4
			c-18.4,10.9-32.9,26.2-43.3,45.7c-10.5,19.6-15.7,41.6-15.7,66.2c0,24.6,5.2,46.5,15.7,65.8c10.5,19.3,24.9,34.4,43.3,45.4
			c18.4,10.9,39.2,16.4,62.4,16.4C4793.6,1118.8,4814.4,1113.4,4832.9,1102.4z"/>
		<path fill="#FA385B" d="M5110.4,1165.9c-27.3-9.5-48.7-22-64.1-37.5c-5.9-5.9-8.9-13-8.9-21.1c0-10.9,4.5-19.8,13.6-26.6
			c8.6-6.4,16.6-9.5,23.9-9.5c9.1,0,17.7,4.1,25.9,12.3c8.6,9.5,21.6,17.8,38.9,24.9c17.3,7.1,35.7,10.6,55.2,10.6
			c25.9,0,46-4.3,60.4-13c14.3-8.6,21.5-20.2,21.5-34.8c0-14.1-7.1-25.8-21.1-35.1c-14.1-9.3-38-17.2-71.6-23.5
			c-87.3-16.8-130.9-52.7-130.9-107.8c0-22.3,6.6-41.1,19.8-56.6c13.2-15.5,30.5-27,51.8-34.8c21.4-7.7,44.1-11.6,68.2-11.6
			c29.5,0,56,4.8,79.5,14.3c23.4,9.5,41.9,22.7,55.6,39.6c5.9,7.3,8.9,14.6,8.9,21.8c0,7.7-3.9,14.8-11.6,21.1
			c-5,3.6-11.4,5.5-19.1,5.5c-11.8,0-22.5-4.3-32.1-13c-11.4-10.5-23.4-17.8-36.1-22.2c-12.7-4.3-28.2-6.5-46.4-6.5
			c-20.9,0-38.1,3.5-51.5,10.6c-13.4,7.1-20.1,16.9-20.1,29.7c0,9.1,2.3,16.7,6.8,22.8c4.5,6.1,13.2,11.8,25.9,17
			c12.7,5.2,31.1,10.3,55.2,15.3c49.6,10,84.7,23.9,105.4,41.6c20.7,17.7,31,40.7,31,68.9c0,20.9-5.7,39.9-17,56.9
			c-11.4,17-28.1,30.5-50.1,40.2c-22.1,9.8-48.5,14.7-79.5,14.7C5166.8,1180.2,5137.7,1175.4,5110.4,1165.9z"/>
		<path fill="#FA385B" d="M5715.3,826.6c28.9,16.6,51.5,39.3,67.9,68.2c16.4,28.9,24.6,61,24.6,96.5c0,35.5-7.6,67.6-22.8,96.5
			c-15.2,28.9-36.1,51.5-62.7,67.9c-26.6,16.4-56.3,24.6-89,24.6c-26.4,0-50.9-5.5-73.7-16.4c-22.7-10.9-42.1-26.1-58-45.7v184.1
			c0,10.5-3.2,18.9-9.5,25.2c-6.4,6.4-14.8,9.5-25.2,9.5c-10,0-18.3-3.2-24.9-9.5c-6.6-6.4-9.9-14.8-9.9-25.2v-311
			c0-35.5,8.3-67.6,24.9-96.5c16.6-28.9,39.1-51.6,67.5-68.2c28.4-16.6,60.1-24.9,95.1-24.9C5654.5,801.7,5686.5,810,5715.3,826.6z
			 M5681.2,1102.1c18.4-11.1,33-26.4,43.6-45.7c10.7-19.3,16-41,16-65.1c0-24.1-5.3-45.9-16-65.5c-10.7-19.5-25.2-34.9-43.6-46
			c-18.4-11.1-39-16.7-61.7-16.7c-22.7,0-43.3,5.6-61.7,16.7c-18.4,11.1-32.9,26.5-43.3,46c-10.5,19.6-15.7,41.4-15.7,65.5
			c0,24.1,5.2,45.8,15.7,65.1c10.5,19.3,24.9,34.6,43.3,45.7c18.4,11.1,39,16.7,61.7,16.7
			C5642.2,1118.8,5662.8,1113.2,5681.2,1102.1z"/>
		<path fill="#FA385B" d="M6237.2,1006.6c-5.9,5.7-13.4,8.5-22.5,8.5h-259.2c5,31.8,19.4,57.5,43.3,77.1
			c23.9,19.6,53.1,29.3,87.6,29.3c13.6,0,27.8-2.5,42.6-7.5c14.8-5,26.9-11.1,36.5-18.4c6.4-5,13.9-7.5,22.5-7.5
			c8.6,0,15.5,2.3,20.5,6.8c8.2,6.8,12.3,14.6,12.3,23.2c0,8.2-3.6,15-10.9,20.5c-15.5,12.3-34.7,22.3-57.6,30
			c-23,7.7-44.9,11.6-65.8,11.6c-37.3,0-70.7-8.1-100.3-24.2c-29.6-16.1-52.6-38.5-69.2-67.2c-16.6-28.6-24.9-61.1-24.9-97.5
			c0-36.4,7.8-69,23.5-97.9c15.7-28.9,37.5-51.4,65.5-67.5c28-16.1,59.7-24.2,95.1-24.2c35,0,65.2,7.7,90.7,23.2
			c25.5,15.5,45,37.1,58.7,64.8c13.6,27.7,20.5,59.6,20.5,95.5C6246,993.8,6243.1,1000.9,6237.2,1006.6z M5995.4,887.6
			c-20.7,18.2-33.8,42.5-39.2,73h227.1c-4.1-30.5-15.5-54.8-34.1-73c-18.6-18.2-43-27.3-73-27.3
			C6043,860.3,6016.1,869.4,5995.4,887.6z"/>
		<path fill="#FA385B" d="M6574.1,811.2c13.6,7.3,20.5,16.4,20.5,27.3c0,3.2-0.2,5.5-0.7,6.8c-4.1,14.6-13.2,21.8-27.3,21.8
			c-2.3,0-5.7-0.4-10.2-1.4c-18.2-3.2-33-4.8-44.3-4.8c-32.7,0-59.1,7.5-79.1,22.5c-20,15-30,35.2-30,60.7v199.1
			c0,10.9-2.8,19.3-8.5,25.2c-5.7,5.9-14.2,8.9-25.6,8.9c-10.9,0-19.3-2.8-25.2-8.5c-5.9-5.7-8.9-14.2-8.9-25.6V838.5
			c0-10.9,3-19.3,8.9-25.2c5.9-5.9,14.3-8.9,25.2-8.9c22.7,0,34.1,11.4,34.1,34.1v13c13.6-15.9,30.5-28.4,50.5-37.5
			c20-9.1,41.4-13.6,64.1-13.6C6541.6,800.3,6560.5,804,6574.1,811.2z"/>
	</g>
</g>
</svg>
